Coordinates
version=1
nRows=16
nColumns=42
inDegrees=yes

Units are S.I. units (second, meters, Newtons, ...)
If the header above contains a line with 'inDegrees', this indicates whether rotational values are in degrees (yes) or radians (no).

endheader
time	pelvis_tilt	pelvis_list	pelvis_rotation	pelvis_tx	pelvis_ty	pelvis_tz	hip_flexion_r	hip_adduction_r	hip_rotation_r	knee_angle_r	knee_adduction_r	knee_angle_r_beta	ankle_angle_r	subtalar_angle_r	mtp_angle_r	hip_flexion_l	hip_adduction_l	hip_rotation_l	knee_angle_l	knee_adduction_l	knee_angle_l_beta	ankle_angle_l	subtalar_angle_l	mtp_angle_l	lumbar_extension	lumbar_bending	lumbar_rotation	arm_flex_r	arm_add_r	arm_rot_r	elbow_flex_r	pro_sup_r	wrist_flex_r	wrist_dev_r	arm_flex_l	arm_add_l	arm_rot_l	elbow_flex_l	pro_sup_l	wrist_flex_l	wrist_dev_l
      0.60000000	     -2.72862288	     -0.66046588	     -1.84201951	     -0.70382450	      0.85756926	     -0.39258891	     27.49494074	     -0.71565274	     -8.93305971	     21.86009452	      4.59293895	      0.38153062	      1.78581121	     -6.14026797	     -7.78139351	    -10.14816887	     -2.32208782	     -0.34700500	      3.82047832	     10.80803263	      0.06667993	     18.00236978	     -2.02943909	     -7.78139351	     -4.81433900	      1.41043787	      0.58284477	     -4.70449839	    -14.94400067	      1.57222943	     31.49847456	     90.00000001	      0.00000000	      0.00000000	      9.83782633	    -12.76660541	    -13.70069008	     33.53277459	     90.00000001	      0.00000000	      0.00000000
      0.61000000	     -2.74360297	     -0.51310140	     -1.55521967	     -0.69191294	      0.85549898	     -0.39257190	     27.20519023	     -0.98621990	     -9.28135204	     18.87279334	      4.75436192	      0.32939238	      1.71612265	     -4.74543153	     -7.76852762	    -10.91547723	     -2.21130777	     -0.27491053	      4.02241931	     10.87363280	      0.07020446	     18.37708182	     -1.79520924	     -7.76852762	     -4.64853279	      1.37351538	      0.09897242	     -5.12510365	    -15.06545532	      1.19144028	     31.47417506	     90.00000001	      0.00000000	      0.00000000	     10.10976553	    -12.87579291	    -13.42537139	     33.73066464	     90.00000001	      0.00000000	      0.00000000
      0.62000000	     -2.76884723	     -0.38977858	     -1.26083767	     -0.67986846	      0.85343263	     -0.39248140	     26.89585400	     -1.22287633	     -9.57794502	     16.19835059	      4.88161489	      0.28271455	      1.63432121	     -3.37700437	     -7.75586458	    -11.64207552	     -2.14584628	     -0.12332624	      4.29113388	     10.92723854	      0.07489441	     18.69055829	     -1.59535210	     -7.75586458	     -4.47051576	      1.36468518	     -0.38460713	     -5.52563766	    -15.18968278	      0.79668572	     31.45689868	     90.00000001	      0.00000000	      0.00000000	     10.31538803	    -12.98576439	    -13.12754748	     33.95807671	     90.00000001	      0.00000000	      0.00000000
      0.63000000	     -2.84852857	     -0.26434585	     -0.97922277	     -0.66777172	      0.85137126	     -0.39233193	     26.67751725	     -1.45903287	     -9.79505074	     13.96551485	      4.98955157	      0.24374422	      1.59517694	     -2.10056051	     -7.74492443	    -12.25565823	     -2.09725833	      0.08821525	      4.67827390	     10.98010182	      0.08165128	     18.93385191	     -1.46255184	     -7.74492443	     -4.23364776	      1.35345452	     -0.85503662	     -5.89459292	    -15.31917743	      0.42421046	     31.41837235	     90.00000001	      0.00000000	      0.00000000	     10.45574306	    -13.09453824	    -12.82807492	     34.21108221	     90.00000001	      0.00000000	      0.00000000
      0.64000000	     -3.15504627	     -0.02149277	     -0.77674103	     -0.65571164	      0.84910086	     -0.39216492	     26.86144306	     -1.83104728	     -9.91358673	     12.42796457	      5.12702718	      0.21690890	      1.51207117	     -1.16184596	     -7.74133283	    -12.55401622	     -1.86659061	      0.31284893	      5.18067972	     10.91250042	      0.09041992	     19.03928413	     -1.38245882	     -7.74133283	     -3.73556806	      1.21850110	     -1.24090358	     -6.31332665	    -15.47754651	      0.23950076	     31.42355960	     90.00000001	      0.00000000	      0.00000000	     10.53213528	    -13.16694594	    -12.66063867	     34.44182703	     90.00000001	      0.00000000	      0.00000000
      0.65000000	     -3.31987457	      0.03115700	     -0.48164680	     -0.64353176	      0.84724159	     -0.39192195	     26.73337461	     -1.97496845	     -9.84344609	     10.99879624	      5.16652493	      0.19196521	      1.52117052	     -0.10803630	     -7.73723043	    -12.92416030	     -1.95006257	      0.72664580	      5.85266607	     11.00607316	      0.10214829	     19.07628498	     -1.38278184	     -7.73723043	     -3.42751079	      1.29310610	     -1.71398022	     -6.59118537	    -15.62083283	     -0.07726317	     31.35160654	     90.00000001	      0.00000000	      0.00000000	     10.54747257	    -13.23787158	    -12.39088959	     34.72786812	     90.00000001	      0.00000000	      0.00000000
      0.66000000	     -3.32099941	     -0.17839141	     -0.21662003	     -0.63113119	      0.84577038	     -0.39124741	     26.45077057	     -1.75648196	     -9.96348692	     10.06305604	      5.03371342	      0.17563346	      1.50341344	      0.69848133	     -7.73088177	    -13.43050912	     -2.42741182	      1.05025967	      6.64071514	     11.25105453	      0.11590234	     18.96576960	     -1.50566843	     -7.73088177	     -3.30379221	      1.61803280	     -2.11233618	     -6.80021820	    -15.72237883	     -0.54083640	     31.18558261	     90.00000001	      0.00000000	      0.00000000	     10.49982547	    -13.31752001	    -12.06721839	     35.10542841	     90.00000001	      0.00000000	      0.00000000
      0.67000000	     -3.48976669	     -0.24798717	     -0.13388787	     -0.61879922	      0.84429956	     -0.39070380	     26.55320077	     -1.69686054	     -9.85605544	      9.89380059	      4.99660162	      0.17267940	      1.51354426	      1.01666863	     -7.72815317	    -13.73874257	     -2.60461091	      1.42787334	      7.41462447	     11.30447627	      0.12940961	     18.65989248	     -1.47715753	     -7.72815317	     -3.01024701	      1.84014161	     -2.26670920	     -7.08043265	    -15.95356597	     -0.71406058	     31.08057113	     90.00000001	      0.00000000	      0.00000000	     10.48693487	    -13.23826765	    -11.95938452	     35.38947808	     90.00000001	      0.00000000	      0.00000000
      0.68000000	     -3.60998086	     -0.25225328	     -0.18050739	     -0.60600748	      0.84309418	     -0.38991158	     26.59442151	     -1.63684316	     -9.62181401	     10.09638426	      4.94071086	      0.17621515	      1.46820708	      1.15664717	     -7.72681660	    -14.18877069	     -2.69427817	      1.77275221	      8.03327339	     11.36767902	      0.14020707	     18.47095151	     -1.40039264	     -7.72681660	     -2.69004741	      1.96227707	     -2.37480841	     -7.33433125	    -16.16639282	     -0.80588354	     30.99933892	     90.00000001	      0.00000000	      0.00000000	     10.32532006	    -13.23665317	    -11.93569099	     35.47618020	     90.00000001	      0.00000000	      0.00000000
      0.69000000	     -3.70630101	     -0.98940599	      0.28825737	     -0.59349201	      0.84240194	     -0.38892384	     26.27116058	     -0.81930536	     -9.59230565	      9.97336536	      4.59718190	      0.17406806	      1.25813231	      1.31998418	     -7.71885913	    -13.95567238	     -3.96757436	      1.91852982	     10.08154688	     11.90139590	      0.17595619	     17.42225180	     -2.41435379	     -7.71885913	     -2.48968227	      2.85478665	     -2.91498885	     -7.30826755	    -16.20537119	     -1.46346719	     30.58281891	     90.00000001	      0.00000000	      0.00000000	      9.96776044	    -13.23046881	    -11.54961162	     36.20436389	     90.00000001	      0.00000000	      0.00000000
      0.70000000	     -3.74727591	     -1.38215782	      0.37597810	     -0.58070888	      0.84195610	     -0.38787382	     26.10356598	     -0.31245278	     -9.29398564	     10.57154752	      4.42963859	      0.18450831	      1.15581114	      1.00287728	     -7.71344146	    -14.01486594	     -4.64024173	      2.12377208	     11.62866625	     12.19504631	      0.20295851	     16.29091692	     -2.91426852	     -7.71344146	     -2.32094145	      3.39171706	     -3.06195757	     -7.38465108	    -16.36163324	     -1.74463741	     30.34462014	     90.00000001	      0.00000000	      0.00000000	      9.67372393	    -13.14091995	    -11.46387425	     36.60585063	     90.00000001	      0.00000000	      0.00000000
      0.71000000	     -3.73551361	     -1.74540342	      0.40961051	     -0.56791329	      0.84183526	     -0.38668427	     25.88020676	      0.19762405	     -8.89796187	     11.41412999	      4.27307413	      0.19921415	      1.01589020	      0.61571587	     -7.70929737	    -14.00845547	     -5.31871589	      2.30240472	     13.37469218	     12.60843454	      0.23343242	     14.99283344	     -3.47968935	     -7.70929737	     -2.23502697	      3.88171735	     -3.10891352	     -7.40699643	    -16.51436067	     -1.93980490	     30.09281824	     90.00000001	      0.00000000	      0.00000000	      9.37033738	    -13.04353486	    -11.42614039	     37.01795596	     90.00000001	      0.00000000	      0.00000000
      0.72000000	     -3.93585906	     -2.29704250	      0.40361777	     -0.55502871	      0.84184572	     -0.38539071	     25.63716181	      0.97842610	     -7.73234511	     11.92578031	      4.22700442	      0.20814413	      0.21250782	     -1.42500803	     -7.69124637	    -13.53898580	     -6.16857642	      2.40553537	     15.59152685	     12.98949149	      0.27212348	     13.37963305	     -4.95325468	     -7.69124637	     -1.88047060	      4.58499836	     -3.12022536	     -7.37393744	    -16.63532749	     -2.38660619	     29.66597376	     90.00000001	      0.00000000	      0.00000000	      8.92471553	    -12.86623174	    -11.37438463	     37.39617551	     90.00000001	      0.00000000	      0.00000000
      0.73000000	     -3.73228943	     -2.69588249	      0.33959915	     -0.54195062	      0.84249325	     -0.38403709	     25.11284421	      1.55381128	     -7.37401089	     12.98812224	      4.15986123	      0.22668550	      0.13884452	     -1.85787044	     -7.68711662	    -13.44796182	     -6.83252433	      2.23969862	     17.91689626	     13.29482793	      0.31270883	     11.46611738	     -5.73234460	     -7.68711662	     -2.01586158	      5.09690994	     -3.02387920	     -7.29544664	    -16.81053024	     -2.44943964	     29.37483570	     90.00000001	      0.00000000	      0.00000000	      8.49810303	    -12.74520361	    -11.39892979	     37.88692531	     90.00000001	      0.00000000	      0.00000000
      0.74000000	     -3.75323413	     -3.17676587	      0.28426279	     -0.52889307	      0.84316891	     -0.38267459	     24.71729468	      2.23232698	     -6.85759667	     13.92045491	      4.10843868	      0.24295777	     -0.16573956	     -2.58254498	     -7.68145162	    -12.81318951	     -7.61149388	      1.88834162	     20.80330457	     13.58080452	      0.36308616	      9.36865165	     -7.07333745	     -7.68145162	     -1.87815564	      5.70579694	     -2.92108242	     -7.19183984	    -16.95319956	     -2.54815321	     29.00303809	     90.00000001	      0.00000000	      0.00000000	      7.95193876	    -12.52163659	    -11.40034146	     38.37211560	     90.00000001	      0.00000000	      0.00000000
      0.75000000	     -3.61507068	     -3.56957421	      0.18836974	     -0.51584352	      0.84424901	     -0.38128021	     24.08691537	      2.82484048	     -6.30449801	     14.82633050	      4.12305621	      0.25876828	     -0.23754843	     -3.31269357	     -7.67694550	    -12.23760935	     -8.25833132	      1.49548138	     23.81704170	     13.76155668	      0.41568580	      7.11353348	     -8.25701614	     -7.67694550	     -1.95221436	      6.19776767	     -2.72717799	     -7.02243457	    -17.08869945	     -2.61587413	     28.66071338	     90.00000001	      0.00000000	      0.00000000	      7.44311492	    -12.31159349	    -11.44139749	     38.82939177	     90.00000001	      0.00000000	      0.00000000
